HIERARCHY
ROOT Hips
{
  OFFSET 0 0 0
  CHANNELS 6 Xposition Yposition Zposition Zrotation Yrotation Xrotation
  JOINT LeftThigh
  {
    OFFSET 8.409438 0 -5.917753
    CHANNELS 3 Zrotation Yrotation Xrotation
    JOINT LeftLeg
    {
      OFFSET 0 0 -42.358652
      CHANNELS 3 Zrotation Yrotation Xrotation
      JOINT LeftFoot
      {
        OFFSET 0 0 -39.357303
        CHANNELS 3 Zrotation Yrotation Xrotation
      }
    }
  }
  JOINT RightThigh
  {
    OFFSET -8.409438 0 -5.917753
    CHANNELS 3 Zrotation Yrotation Xrotation
    JOINT RightLeg
    {
      OFFSET 0 0 -42.358652
      CHANNELS 3 Zrotation Yrotation Xrotation
      JOINT RightFoot
      {
        OFFSET 0 0 -39.357303
        CHANNELS 3 Zrotation Yrotation Xrotation
      }
    }
  }
  JOINT SpineLow
  {
    OFFSET 0 0 4.719101
    CHANNELS 3 Zrotation Yrotation Xrotation
    JOINT SpineMid
    {
      OFFSET 0 0 12.899191
      CHANNELS 3 Zrotation Yrotation Xrotation
      JOINT Chest
      {
        OFFSET 0 0 12.899191
        CHANNELS 3 Zrotation Yrotation Xrotation
        JOINT LeftShoulder
        {
          OFFSET 7.550562 1.41573 9.438202
          CHANNELS 3 Zrotation Yrotation Xrotation
          JOINT LeftArm
          {
            OFFSET 9.155056 0 4.247191
            CHANNELS 3 Zrotation Yrotation Xrotation
            JOINT LeftForearm
            {
              OFFSET 0 0 25.771955
              CHANNELS 3 Zrotation Yrotation Xrotation
              JOINT LeftHand
              {
                OFFSET 0 0 25.197169
                CHANNELS 3 Zrotation Yrotation Xrotation
              }
            }
          }
        }
        JOINT RightShoulder
        {
          OFFSET -7.550562 1.41573 9.438202
          CHANNELS 3 Zrotation Yrotation Xrotation
          JOINT RightArm
          {
            OFFSET -9.155056 0 4.247191
            CHANNELS 3 Zrotation Yrotation Xrotation
            JOINT RightForearm
            {
              OFFSET 0 0 -25.771955
              CHANNELS 3 Zrotation Yrotation Xrotation
              JOINT RightHand
              {
                OFFSET 0 0 -25.197169
                CHANNELS 3 Zrotation Yrotation Xrotation
              }
            }
          }
        }
        JOINT Neck
        {
          OFFSET 0 0 15.101124
          CHANNELS 3 Zrotation Yrotation Xrotation
          JOINT Head
          {
            OFFSET 0 0 11.325843
            CHANNELS 3 Zrotation Yrotation Xrotation
            End Site
            {
              OFFSET 0 0 14.157303
            }
          }
        }
      }
    }
  }
}
MOTION
Frames: 13
Frame Time: 0.0
0.0  93.25843  0.0  -3.276499  -39.628838  -89.586978  32.148231  -24.11857  -37.121172  -5.554002  9.512704  39.266574  4.560756  2.733149  3.409072  -27.312336  20.280592  -14.229658  4.216488  8.724531  28.083643  2.037077  3.794407  -5.525703  2.612534  -0.059337  0.118863  7.140805  -0.174803  0.318061  7.140805  -0.174803  0.318061  -13.336417  10.757869  -0.747766  -144.679406  66.656057  -89.221888  -30.884785  8.628963  84.442402  79.173706  -10.488142  7.44269  -5.516835  -13.078292  15.184879  98.781266  28.429662  37.236325  -16.073326  -4.70782  -116.899242  71.589145  -22.164321  -40.148165  -14.022812  0.807916  3.683995  -10.522257  0.52173  2.783233  
0.0  93.25843  0.0  -2.832964  -39.181592  -89.939153  32.820365  -23.633725  -36.861575  -5.908406  9.43728  38.580795  4.225913  2.853999  3.308316  -25.085907  20.828386  -12.889804  3.539093  8.468747  28.247383  1.906769  3.705747  -5.739951  2.323395  0.066867  0.182193  6.351242  0.165088  0.5039  6.351242  0.165088  0.5039  -13.342147  9.848895  -0.559577  -143.380059  65.669265  -88.87541  -30.756549  9.588439  84.135003  79.131918  -10.940871  7.151073  -5.61953  -13.39107  15.539213  98.761411  28.362582  38.26859  -16.557457  -5.493307  -116.580826  76.056659  -22.025885  -43.319589  -13.089472  0.727494  3.811473  -9.82196  0.464239  2.875717  
0.0  93.25843  0.0  -2.605698  -38.306855  -90.132419  32.5988  -23.655206  -36.616349  -5.983069  9.624233  37.904561  4.042278  3.003152  3.227832  -21.473665  21.181365  -10.802768  1.599493  7.955202  28.340657  1.191888  3.876901  -5.887521  2.075276  0.198774  0.210547  5.674351  0.524807  0.59208  5.674351  0.524807  0.59208  -14.014  8.786526  -0.518071  -142.678948  65.232223  -89.079714  -30.844496  10.40887  83.756683  79.15424  -11.411134  6.747905  -6.397017  -13.898999  15.920719  97.894309  28.984322  38.836168  -16.652085  -5.850157  -116.030333  79.175876  -21.108385  -44.514076  -12.788289  0.507512  4.003026  -9.594966  0.297018  3.014438  
0.0  93.25843  0.0  -2.583301  -37.530555  -90.176132  32.158918  -24.089986  -36.430035  -5.749241  9.988027  37.278291  3.96697  3.178212  3.153122  -17.797579  21.143925  -8.8679  -0.515973  7.447835  28.513902  0.031664  4.138669  -6.03873  1.839978  0.200417  0.181572  5.03097  0.533643  0.51123  5.03097  0.533643  0.51123  -14.224987  8.687571  -0.373772  -141.431037  65.484422  -90.171987  -30.839505  12.096875  84.791497  79.368549  -11.925307  6.272439  -7.01619  -13.751565  16.423422  96.26038  29.543538  38.90379  -16.41492  -5.674474  -115.820135  80.159521  -21.068546  -44.449591  -12.477459  0.728897  4.314957  -9.363666  0.458809  3.252667  
0.0  93.25843  0.0  -2.714839  -36.753326  -90.002969  31.700312  -24.71703  -36.449778  -5.269328  10.478421  36.739696  3.8936  3.381057  3.062797  -15.418315  20.954807  -7.790746  -2.270807  7.159517  28.800698  -0.846188  4.268809  -6.178328  1.678737  0.215048  0.106135  4.589702  0.580121  0.304877  4.589701  0.580121  0.304878  -14.541433  8.773473  -0.077142  -141.178829  65.945833  -89.914478  -30.717843  11.814667  84.520946  79.551525  -12.293095  5.892448  -7.702867  -13.97816  16.753819  94.305091  29.653197  38.743032  -15.727965  -5.553093  -115.906964  79.712904  -22.172989  -43.840543  -12.477375  0.838039  4.725726  -9.365007  0.532324  3.563106  
0.0  93.25843  0.0  -2.856649  -36.085909  -89.811412  31.522206  -25.343871  -36.543068  -4.603494  11.008805  36.320889  3.688976  3.560512  2.909898  -14.614442  20.735476  -7.404379  -3.365227  7.284957  28.969122  -0.620785  4.32803  -6.364132  1.494166  0.117116  -0.015129  4.08411  0.320919  -0.034102  4.08411  0.320919  -0.034102  -14.349711  9.693511  0.531394  -140.797818  66.383468  -89.442412  -30.302454  11.006829  84.528279  79.50576  -12.447322  5.634339  -9.401081  -13.646469  16.275075  94.49337  28.092078  39.015101  -14.7893  -6.182179  -116.038897  79.119749  -23.521354  -42.615905  -12.343632  1.35635  5.154478  -9.26951  0.913652  3.894967  
0.0  93.25843  0.0  -3.003496  -35.562731  -89.691204  31.780371  -25.848145  -36.673519  -4.008259  11.517949  35.905608  3.490055  3.699078  2.828851  -15.096365  20.614237  -7.445767  -3.618425  7.449289  29.021114  0.119955  4.204264  -6.414869  1.328827  -0.006269  -0.105033  3.632235  -0.011361  -0.28734  3.632235  -0.011361  -0.28734  -13.891263  10.66677  1.156093  -140.60874  66.662849  -89.020557  -29.748944  10.13541  84.738044  79.491604  -12.458763  5.43912  -9.221226  -13.312726  16.168588  93.471553  27.413729  38.913676  -13.906135  -7.227093  -116.013004  78.738488  -24.429937  -41.067429  -12.19478  1.898679  5.418038  -9.16293  1.316625  4.102997  
0.0  93.25843  0.0  -3.071052  -35.201572  -89.617703  32.669184  -25.971884  -36.782494  -3.654379  11.910535  35.410937  3.187201  3.769434  2.752955  -16.489985  20.640083  -7.806296  -3.087067  7.213362  29.031434  0.704796  3.981003  -6.309761  1.249964  -0.095774  -0.167056  3.41731  -0.253075  -0.461443  3.41731  -0.253075  -0.461443  -13.697525  11.324198  1.627579  -140.225016  66.804511  -89.865728  -29.072163  10.561619  86.135618  79.661778  -12.416901  5.31661  -9.219183  -13.102962  15.861613  92.878443  26.700964  38.728575  -13.529965  -7.835646  -115.860522  78.258364  -24.939966  -39.492063  -12.250647  2.278077  5.537782  -9.208311  1.598457  4.200483  
0.0  93.25843  0.0  -3.062393  -34.949971  -89.654255  33.798768  -25.853001  -36.97104  -3.304778  12.091613  35.130357  2.803279  3.776407  2.696162  -17.653116  20.785108  -8.144046  -2.078195  6.792343  29.082347  1.040155  4.007416  -6.309671  1.244998  -0.153723  -0.201916  3.404373  -0.409664  -0.559667  3.404374  -0.409664  -0.559667  -13.794785  11.724218  2.018495  -141.031717  66.570611  -90.433679  -28.470556  10.472204  86.423023  79.89721  -12.412211  5.283589  -9.379506  -12.943375  15.697588  92.594073  26.259793  38.47234  -13.730482  -8.145179  -115.471836  78.022459  -24.985158  -38.558744  -12.481117  2.527929  5.573153  -9.383296  1.783178  4.232942  
0.0  93.25843  0.0  -2.665157  -35.076021  -89.890675  35.374151  -25.182358  -37.053584  -3.204569  12.0871  34.905724  2.274573  3.843202  2.56127  -18.073623  21.105185  -8.426018  -2.347626  6.244681  29.25129  1.681005  4.437438  -6.392925  1.231115  -0.162766  -0.249599  3.366814  -0.432065  -0.690345  3.366814  -0.432065  -0.690345  -13.402127  12.123636  2.462762  -141.821193  66.525702  -91.555282  -28.06486  10.967682  87.110402  80.074478  -12.430045  5.309257  -9.017609  -12.720294  15.815772  92.390789  25.939199  38.101715  -14.04954  -8.085556  -115.074108  78.056641  -24.758196  -38.157567  -12.457114  2.760991  5.623579  -9.367374  1.957273  4.275296  
0.0  93.25843  0.0  -2.575388  -34.97948  -90.115627  36.719936  -24.626028  -37.140323  -3.371328  11.956441  34.690452  1.877148  3.806303  2.499136  -18.003341  21.108683  -8.130857  -1.911548  6.079191  29.13915  1.586258  4.46936  -6.35066  1.251504  -0.188965  -0.244119  3.42279  -0.503722  -0.676859  3.42279  -0.503722  -0.676859  -13.39111  12.422716  2.761134  -143.25876  66.583255  -92.65903  -27.75974  10.957178  87.469644  80.167948  -12.416972  5.374591  -9.071432  -12.580957  15.929746  92.279158  25.754023  37.707436  -14.287508  -7.872093  -114.71229  78.5559  -24.429528  -38.104189  -12.630982  2.857662  5.594284  -9.498375  2.028851  4.25611  
0.0  93.25843  0.0  -2.488653  -35.091654  -90.357459  38.035126  -24.043976  -37.164348  -3.739383  11.813326  34.472987  1.477234  3.728669  2.384073  -17.395566  21.034113  -7.573383  -1.890856  6.091524  28.830824  1.549942  4.539613  -6.253581  1.301999  -0.210839  -0.226492  3.560902  -0.563918  -0.63025  3.560902  -0.563918  -0.63025  -13.358615  12.708649  2.991931  -145.153939  66.8803  -94.162922  -27.549  10.508998  87.880634  80.136324  -12.398655  5.484433  -9.083913  -12.407079  16.163493  92.20401  25.76744  37.322501  -14.478534  -7.516934  -114.352945  79.259094  -24.1222  -38.141165  -13.063191  2.800909  5.486345  -9.821524  1.984671  4.176122  
0.0  93.25843  0.0  -2.413191  -34.93786  -90.53046  38.757384  -23.549745  -37.177717  -4.200036  11.736951  34.25652  1.321615  3.588919  2.330089  -16.515177  21.044398  -6.886928  -2.370865  6.115867  28.527506  1.404666  4.535806  -6.15409  1.336827  -0.227214  -0.215595  3.656171  -0.608929  -0.601673  3.656171  -0.608929  -0.601673  -13.369965  12.998411  3.306244  -147.340619  67.159287  -95.925473  -27.253047  9.690773  88.437577  80.021448  -12.367804  5.646224  -9.13807  -12.221175  16.43576  92.064944  25.881933  36.937998  -14.704155  -6.974957  -113.956674  79.784841  -23.773651  -38.027557  -13.310253  2.7925  5.4472  -10.006545  1.977031  4.147795  
